<svg width="174" height="234" viewBox="0 0 174 234" fill="none" xmlns="http://www.w3.org/2000/svg">
<path d="M83.7696 151H75.5695L83.7696 92.2778H55.069C50.3129 92.2778 50.3949 89.5933 51.9529 86.7411C53.511 83.8889 52.3629 86.07 52.5269 85.7344C63.1052 66.6078 79.0135 38.0856 100.17 0H108.37L100.17 58.7222H128.871C132.889 58.7222 133.463 61.4906 132.725 63.0006L132.151 64.2589C99.842 122.058 83.7696 151 83.7696 151Z" fill="#61E4A3"/>
<path d="M3.03361 222.016L3.22788 187.835L10.3379 187.875L10.2648 200.727L10.4818 200.728C10.7972 200.04 11.2519 199.341 11.8456 198.633C12.4506 197.913 13.2329 197.316 14.1925 196.843C15.1633 196.359 16.3664 196.121 17.8017 196.129C19.671 196.14 21.3929 196.639 22.9673 197.628C24.5418 198.605 25.7963 200.075 26.731 202.039C27.6657 203.991 28.1247 206.436 28.108 209.374C28.0917 212.233 27.6163 214.645 26.6816 216.609C25.758 218.562 24.5034 220.041 22.9176 221.044C21.3431 222.037 19.5822 222.527 17.635 222.516C16.2553 222.509 15.0828 222.274 14.1173 221.812C13.163 221.35 12.3819 220.773 11.7738 220.08C11.1658 219.375 10.7025 218.666 10.3839 217.952L10.0668 217.95L10.0434 222.056L3.03361 222.016ZM10.0662 209.238C10.0576 210.762 10.2614 212.093 10.6778 213.23C11.0941 214.368 11.7011 215.256 12.4986 215.894C13.2962 216.522 14.268 216.839 15.414 216.846C16.5712 216.852 17.5522 216.541 18.3569 215.911C19.1617 215.27 19.7732 214.384 20.1913 213.251C20.6206 212.107 20.8395 210.79 20.848 209.299C20.8564 207.819 20.658 206.516 20.2527 205.39C19.8474 204.264 19.246 203.381 18.4484 202.743C17.6509 202.104 16.668 201.781 15.4997 201.775C14.3425 201.768 13.3616 202.068 12.557 202.676C11.7636 203.283 11.1522 204.148 10.723 205.269C10.2938 206.39 10.0749 207.713 10.0662 209.238ZM43.6607 222.748C41.0237 222.733 38.7569 222.186 36.8603 221.107C34.9749 220.017 33.5259 218.484 32.5135 216.509C31.5011 214.523 31.0025 212.177 31.0179 209.474C31.0329 206.837 31.5579 204.525 32.5929 202.539C33.6278 200.553 35.0776 199.009 36.942 197.907C38.8177 196.805 41.0128 196.261 43.5274 196.276C45.2187 196.285 46.7916 196.567 48.2461 197.12C49.7118 197.663 50.9867 198.477 52.071 199.562C53.1664 200.648 54.0155 202.01 54.6182 203.649C55.2209 205.277 55.5161 207.182 55.5037 209.362L55.4926 211.315L33.8455 211.192L33.8706 206.786L48.8249 206.871C48.8307 205.847 48.6133 204.939 48.1727 204.147C47.7322 203.354 47.1181 202.733 46.3307 202.284C45.5544 201.823 44.6489 201.59 43.6141 201.584C42.5348 201.578 41.5765 201.823 40.7391 202.319C39.913 202.803 39.2639 203.462 38.7918 204.294C38.3198 205.114 38.0753 206.031 38.0585 207.043L38.0347 211.233C38.0274 212.501 38.2549 213.598 38.7169 214.525C39.1901 215.451 39.8593 216.167 40.7243 216.672C41.5893 217.178 42.6171 217.434 43.8077 217.441C44.5977 217.445 45.3216 217.338 45.9793 217.12C46.637 216.901 47.2008 216.57 47.6707 216.128C48.1405 215.685 48.4997 215.142 48.7482 214.498L55.3216 214.969C54.9788 216.548 54.2867 217.923 53.2452 219.097C52.2149 220.259 50.8856 221.164 49.2574 221.812C47.6403 222.448 45.7748 222.76 43.6607 222.748Z" fill="#61E4A3"/>
<path d="M65.774 188.19L73.888 214.207L74.2051 214.209L82.631 188.286L90.6422 188.332L78.6648 222.446L69.3517 222.393L57.7461 188.145L65.774 188.19ZM102.318 223.081C99.7255 223.066 97.4866 222.503 95.6013 221.391C93.7273 220.267 92.284 218.712 91.2716 216.726C90.2593 214.729 89.7606 212.417 89.7755 209.791C89.7905 207.143 90.3155 204.831 91.3504 202.857C92.3854 200.871 93.8462 199.332 95.7329 198.241C97.6308 197.14 99.876 196.596 102.469 196.611C105.061 196.625 107.294 197.194 109.168 198.318C111.054 199.43 112.503 200.985 113.515 202.983C114.527 204.969 115.026 207.286 115.011 209.934C114.996 212.56 114.471 214.866 113.436 216.852C112.401 218.827 110.935 220.365 109.037 221.467C107.15 222.558 104.911 223.096 102.318 223.081ZM102.383 217.574C103.562 217.58 104.549 217.252 105.343 216.589C106.136 215.915 106.737 214.995 107.144 213.829C107.562 212.663 107.776 211.334 107.784 209.843C107.793 208.352 107.595 207.021 107.19 205.851C106.796 204.68 106.206 203.753 105.419 203.07C104.633 202.387 103.65 202.042 102.471 202.035C101.28 202.028 100.277 202.362 99.4611 203.036C98.6561 203.71 98.0444 204.63 97.6261 205.796C97.2189 206.962 97.0111 208.291 97.0026 209.782C96.9941 211.273 97.1868 212.604 97.5807 213.774C97.9858 214.945 98.587 215.872 99.3842 216.555C100.193 217.227 101.192 217.567 102.383 217.574ZM126.067 188.533L125.873 222.714L118.763 222.674L118.957 188.493L126.067 188.533ZM144.551 197.184L144.52 202.525L129.082 202.437L129.112 197.096L144.551 197.184ZM132.652 190.974L139.762 191.014L139.626 214.915C139.623 215.571 139.72 216.083 139.918 216.452C140.116 216.809 140.393 217.061 140.748 217.208C141.115 217.354 141.537 217.429 142.016 217.432C142.349 217.434 142.683 217.408 143.017 217.354C143.352 217.289 143.608 217.24 143.786 217.208L144.874 222.505C144.517 222.614 144.016 222.74 143.37 222.881C142.724 223.033 141.939 223.123 141.015 223.151C139.301 223.208 137.8 222.971 136.513 222.441C135.236 221.911 134.245 221.093 133.539 219.987C132.833 218.882 132.49 217.489 132.511 215.809L132.652 190.974ZM148.104 222.841L148.128 218.601L160.767 203.134L160.768 202.951L148.651 202.882L148.684 197.207L169.363 197.325L169.336 201.948L157.467 217.035L157.466 217.219L169.683 217.289L169.651 222.963L148.104 222.841Z" fill="#223739"/>
</svg>
