<svg width="22" height="21" viewBox="0 0 22 21" fill="none" xmlns="http://www.w3.org/2000/svg">
<path fill-rule="evenodd" clip-rule="evenodd" d="M3.48263 0.660246C1.65479 2.50378 0.507412 4.80291 0.11616 7.40597C-0.0397201 8.44327 -0.0385993 9.99873 0.118833 11.0717C0.636781 14.6022 2.64714 17.7089 5.54856 19.4626C7.29023 20.5153 9.03763 21.0023 11.0643 21C14.1821 20.9964 17.0687 19.6039 19.2352 17.0582C20.0141 16.143 20.9246 14.5224 21.3272 13.3348C21.8062 11.9221 21.9996 10.7463 22 9.24345C22.0006 7.21206 21.5707 5.40103 20.6614 3.60391C20.0817 2.45837 19.4133 1.54788 18.4528 0.595304L17.8525 0H10.9949H4.13727L3.48263 0.660246ZM17.2125 2.50028C18.5421 3.95672 19.3697 5.72488 19.6941 7.80186C19.8009 8.48553 19.8012 10.0023 19.6946 10.6938C19.5936 11.3499 19.44 11.9964 19.2525 12.5555C19.0556 13.1426 18.543 14.1965 18.1995 14.7202C16.1683 17.8176 12.6542 19.3428 9.28399 18.5899C7.60975 18.2159 6.27464 17.4724 5.02634 16.2188C4.21211 15.4011 3.72805 14.7223 3.21669 13.6812C2.77914 12.7903 2.4732 11.7888 2.31073 10.7155C2.20226 9.99916 2.20166 8.45354 2.30952 7.75134C2.61697 5.7499 3.46754 3.95005 4.7911 2.50028L5.01837 2.25133H11.0018H16.9852L17.2125 2.50028ZM7.91552 3.91178C7.63734 3.98261 7.4368 4.10712 7.21927 4.34412C6.60946 5.00852 6.82086 6.07115 7.64816 6.49981C7.77947 6.56787 7.93547 6.60138 8.18456 6.61515C8.49713 6.63238 8.56356 6.62177 8.78807 6.51882C9.44367 6.21814 9.76401 5.52724 9.56381 4.84578C9.36224 4.15968 8.61189 3.73448 7.91552 3.91178ZM13.4686 3.89922C12.8383 4.02395 12.3813 4.59302 12.3813 5.25309C12.3813 5.62846 12.4814 5.89239 12.7258 6.16094C13.0421 6.50851 13.2623 6.60246 13.7607 6.60246C14.1342 6.60246 14.1906 6.59112 14.4013 6.47396C14.6629 6.32845 14.8789 6.09535 15.0214 5.8048C15.1539 5.53473 15.1554 5.00501 15.0244 4.71386C14.8384 4.30048 14.4586 3.99053 14.028 3.90082C13.7724 3.84757 13.7302 3.84744 13.4686 3.89922ZM5.11747 8.32785C4.62332 8.45648 4.21711 8.78777 3.99407 9.24401C3.87949 9.47837 3.86733 9.54474 3.86733 9.93617C3.86733 10.3217 3.88091 10.3986 3.99122 10.6385C4.14305 10.9686 4.47943 11.3014 4.82636 11.4646C5.04389 11.567 5.12735 11.5814 5.50545 11.5814C5.89476 11.5814 5.96149 11.5691 6.19424 11.4545C6.5379 11.2853 6.83634 10.9774 7.00545 10.6177C7.12723 10.3586 7.14232 10.2845 7.13995 9.95781C7.13611 9.43261 7.02076 9.15547 6.65175 8.78491C6.44185 8.57407 6.30343 8.47549 6.12194 8.40751C5.8048 8.28871 5.39328 8.25607 5.11747 8.32785ZM10.6686 8.31252C10.3458 8.3808 10.0986 8.51999 9.84488 8.77643C9.44733 9.17816 9.28697 9.63064 9.35961 10.1458C9.48195 11.0133 10.1592 11.6071 11.0193 11.6008C12.3831 11.5908 13.1405 9.99812 12.2933 8.92168C11.91 8.4347 11.2539 8.1887 10.6686 8.31252ZM16.1767 8.31659C15.494 8.45102 14.9188 9.08954 14.8541 9.78472C14.7881 10.4946 15.1888 11.1746 15.8549 11.4831C16.0307 11.5645 16.141 11.5814 16.499 11.5814C16.899 11.5814 16.952 11.571 17.2148 11.4411C17.5566 11.272 17.8594 10.9624 18.0207 10.6167C18.1206 10.4026 18.1362 10.3134 18.1362 9.95781C18.1362 9.58557 18.1232 9.51898 17.9994 9.25639C17.7689 8.76773 17.4112 8.47345 16.8783 8.33404C16.6068 8.26304 16.4666 8.25953 16.1767 8.31659ZM7.87642 13.3089C7.75787 13.3382 7.58328 13.3992 7.48844 13.4444C7.23695 13.5642 6.87712 13.9445 6.74279 14.2324C6.63933 14.4542 6.62627 14.533 6.6264 14.9367C6.62653 15.3538 6.63705 15.4121 6.7534 15.6433C6.93562 16.0051 7.32812 16.3603 7.68363 16.4849C8.49063 16.768 9.35482 16.4174 9.74181 15.65C10.2217 14.6985 9.61226 13.4933 8.54951 13.2922C8.26357 13.238 8.15162 13.2408 7.87642 13.3089ZM13.4178 13.293C12.5529 13.4746 11.9488 14.3745 12.1231 15.2216C12.2331 15.7567 12.57 16.1969 13.0504 16.4334C13.2831 16.548 13.3499 16.5603 13.7392 16.5603C14.1167 16.5603 14.2009 16.5459 14.4167 16.4442C14.7458 16.2893 15.0764 15.9705 15.2384 15.6518C15.4168 15.3011 15.4517 14.7801 15.3216 14.4099C15.0389 13.6051 14.2199 13.1246 13.4178 13.293Z" fill="#515151"/>
</svg>
